<svg width="143" height="36" viewBox="0 0 143 36" fill="none" xmlns="http://www.w3.org/2000/svg">
<path d="M9.89 35.258C8.05533 35.258 6.63633 35 5.633 34.484C4.62967 33.9393 3.92733 33.1653 3.526 32.162C3.12467 31.1587 2.924 29.8543 2.924 28.249V14.747H0.516V10.146H2.924V2.578H10.019V10.146H13.545V14.747H10.019V27.561C10.019 28.249 10.2053 28.765 10.578 29.109C10.9793 29.4243 11.524 29.582 12.212 29.582C12.7853 29.582 13.416 29.5247 14.104 29.41V34.914C12.728 35.1433 11.3233 35.258 9.89 35.258ZM17.3942 1.073H24.4462V5.932H17.3942V1.073ZM17.4372 10.146H24.4462V35H17.4372V10.146ZM28.7741 10.146H35.6541V12.124C37.3167 10.49 39.2804 9.673 41.5451 9.673C42.5484 9.673 43.4084 9.931 44.1251 10.447C44.8704 10.9343 45.4294 11.6653 45.8021 12.64C47.5507 10.662 49.6577 9.673 52.1231 9.673C53.5851 9.673 54.7461 10.2177 55.6061 11.307C56.4947 12.3677 56.9391 13.8297 56.9391 15.693V35H50.0591V16.424C50.0591 15.736 49.9301 15.2487 49.6721 14.962C49.4427 14.6467 49.0844 14.489 48.5971 14.489C48.2817 14.489 47.9091 14.575 47.4791 14.747C47.0491 14.8903 46.6477 15.1053 46.2751 15.392V15.693V35H39.4811V16.424C39.4811 15.134 38.9794 14.489 37.9761 14.489C37.3167 14.489 36.5427 14.79 35.6541 15.392V35H28.7741V10.146ZM69.277 35.43C66.5537 35.43 64.4324 34.7133 62.913 33.28C61.3937 31.818 60.634 29.7683 60.634 27.131V18.015C60.634 15.3777 61.3937 13.3423 62.913 11.909C64.4324 10.447 66.5537 9.716 69.277 9.716C72.029 9.716 74.093 10.4183 75.469 11.823C76.845 13.2277 77.533 15.2917 77.533 18.015V23.003H67.557V27.776C67.557 29.5533 68.1304 30.442 69.277 30.442C70.481 30.442 71.083 29.6393 71.083 28.034V25.411H77.533V27.819C77.533 30.313 76.802 32.205 75.34 33.495C73.9067 34.785 71.8857 35.43 69.277 35.43ZM71.083 19.735V17.241C71.083 16.3237 70.911 15.6787 70.567 15.306C70.2517 14.9047 69.8074 14.704 69.234 14.704C68.6894 14.704 68.2737 14.919 67.987 15.349C67.7004 15.779 67.557 16.5387 67.557 17.628V19.735H71.083ZM81.6493 0.169997H88.6153V35H81.6493V0.169997ZM93.1481 1.073H100.2V5.932H93.1481V1.073ZM93.1911 10.146H100.2V35H93.1911V10.146ZM104.528 10.146H111.537V12.64C113.486 10.6907 115.479 9.716 117.514 9.716C119.005 9.716 120.137 10.2607 120.911 11.35C121.714 12.4107 122.115 13.801 122.115 15.521V35H115.149V16.51C115.149 15.8793 115.034 15.4207 114.805 15.134C114.604 14.8187 114.246 14.661 113.73 14.661C113.157 14.661 112.426 14.962 111.537 15.564V35H104.528V10.146ZM134.449 35.43C131.726 35.43 129.604 34.7133 128.085 33.28C126.566 31.818 125.806 29.7683 125.806 27.131V18.015C125.806 15.3777 126.566 13.3423 128.085 11.909C129.604 10.447 131.726 9.716 134.449 9.716C137.201 9.716 139.265 10.4183 140.641 11.823C142.017 13.2277 142.705 15.2917 142.705 18.015V23.003H132.729V27.776C132.729 29.5533 133.302 30.442 134.449 30.442C135.653 30.442 136.255 29.6393 136.255 28.034V25.411H142.705V27.819C142.705 30.313 141.974 32.205 140.512 33.495C139.079 34.785 137.058 35.43 134.449 35.43ZM136.255 19.735V17.241C136.255 16.3237 136.083 15.6787 135.739 15.306C135.424 14.9047 134.979 14.704 134.406 14.704C133.861 14.704 133.446 14.919 133.159 15.349C132.872 15.779 132.729 16.5387 132.729 17.628V19.735H136.255Z" fill="white"/>
</svg>
